<?xml version="1.0" encoding="utf-8"?>
<!-- Generator: Adobe Illustrator 24.0.2, SVG Export Plug-In . SVG Version: 6.00 Build 0)  -->
<svg version="1.1" id="_x37_0093593-85a2-447b-b81e-208691c845a3"
	 xmlns="http://www.w3.org/2000/svg" xmlns:xlink="http://www.w3.org/1999/xlink" x="0px" y="0px" viewBox="0 0 1113.8 825.7"
	 style="enable-background:new 0 0 1113.8 825.7;" xml:space="preserve">
<style type="text/css">
	.st0{opacity:0.1;fill:#6C63FF;enable-background:new    ;}
	.st1{fill:#464A5F;}
	.st2{opacity:0.1;enable-background:new    ;}
	.st3{fill:#9C9CA1;}
	.st4{opacity:0.1;}
	.st5{fill:#939498;}
	.st6{fill:#6C63FF;}
	.st7{fill:none;stroke:#565987;stroke-miterlimit:10;}
	.st8{fill:#FFD037;}
	.st9{fill:#A8A8A8;}
	.st10{opacity:0.2;enable-background:new    ;}
</style>
<title>startup life</title>
<path class="st0" d="M490.9,31.2c-44.1-17.9-90.6-32.9-138.2-31C282.8,2.9,215.8,45,182.9,106.7C155,159,151.5,220.3,139.5,278.3
	c-14.8,71.5-43.2,139.5-73.4,205.9C49.8,520,32.7,556.4,30,595.6C26.3,649.9,52.3,704,93,740.2s94.8,55.2,149.1,59.4
	c28.9,2.2,59.1,0.2,84.8-13.3c27.1-14.2,46.9-39.9,74.2-54c25.3-13,54.8-14.8,83.2-13.1c37.1,2.2,73.7,10,108.6,23.1
	c39.6,14.9,76.5,36.4,116,51.5s83.7,23.5,124.2,10.9c37.9-11.8,68-40.6,95-69.7c44.4-47.8,84.9-99,121.2-153.3
	c24.4-36.6,47.1-75.1,57.9-117.8c20.6-81.5-7.8-173.4-70.8-229c-52.2-46.1-122.2-66.1-190.8-78.3c-62.5-11.1-134.8-11.8-192.4-40.6
	C598.4,88.5,548.4,54.6,490.9,31.2z"/>
<polygon class="st1" points="877.2,527.3 878.8,529 879.6,526.1 878.8,523.3 876.7,523.3 "/>
<polygon class="st2" points="877.2,527.3 878.8,529 879.6,526.1 878.8,523.3 876.7,523.3 "/>
<polygon class="st3" points="877.2,527.3 878.8,529.1 877.2,531 875.4,530.3 875,529.5 "/>
<polygon class="st2" points="877.2,527.3 878.8,529.1 877.2,531 875.4,530.3 875,529.5 "/>
<path class="st3" d="M569.3,223.6L386.5,406.4c-6.8,6.8-6.9,17.9,0,24.8l280.3,282.5c6.8,6.9,17.9,6.9,24.8,0.1l185.6-183
	L569.3,223.6z"/>
<path class="st2" d="M569.3,223.6L386.5,406.4c-6.8,6.8-6.9,17.9,0,24.8l280.3,282.5c6.8,6.9,17.9,6.9,24.8,0.1l185.6-183
	L569.3,223.6z"/>
<path class="st3" d="M569.3,219.9L386.5,402.8c-6.8,6.8-6.9,17.9,0,24.8l280.3,282.5c6.8,6.9,17.9,6.9,24.8,0.1l185.6-183
	L569.3,219.9z"/>
<path class="st1" d="M588.5,91.4l-16.8,127.3l307.8,307.4l17.7-129.4c0.8-5.9-1.2-11.8-5.4-15.9l-297-291.6
	c-1.5-1.4-3.8-1.4-5.3,0.1C589,89.9,588.6,90.6,588.5,91.4z"/>
<path class="st2" d="M588.5,91.4l-16.8,127.3l307.8,307.4l17.7-129.4c0.8-5.9-1.2-11.8-5.4-15.9l-297-291.6
	c-1.5-1.4-3.8-1.4-5.3,0.1C589,89.9,588.6,90.6,588.5,91.4z"/>
<path class="st1" d="M586.1,92.6l-16.8,127.3l307.8,307.4l17.7-129.4c0.8-5.9-1.2-11.8-5.4-15.9l-297-291.6
	c-1.5-1.4-3.8-1.4-5.3,0.1C586.6,91.1,586.2,91.8,586.1,92.6z"/>
<g class="st4">
	<path d="M570.2,278.5L559,289.7c-1.4,1.4-1.4,3.6,0,5c0,0,0,0,0,0l11.3,11.6c1.4,1.4,3.6,1.5,5,0.1l11.1-10.5
		c1.4-1.3,1.5-3.5,0.2-5l-11.3-12.3c-1.3-1.5-3.5-1.6-5-0.3C570.3,278.4,570.2,278.4,570.2,278.5z"/>
	<path d="M590.9,299.2l-11.1,11.2c-1.4,1.4-1.4,3.6,0,5l11.3,11.6c1.3,1.4,3.6,1.5,5,0.1c0,0,0,0,0,0l11.1-10.5
		c1.4-1.3,1.5-3.6,0.2-5L596,299.3c-1.3-1.4-3.5-1.5-5-0.2C591,299.1,591,299.2,590.9,299.2z"/>
	<path d="M612.7,321l-11.1,11.2c-1.3,1.4-1.3,3.6,0,5l11.3,11.6c1.4,1.4,3.6,1.5,5,0.1l11.1-10.5c1.4-1.3,1.5-3.5,0.2-5l-11.3-12.3
		c-1.3-1.5-3.5-1.6-5-0.3C612.8,320.8,612.7,320.9,612.7,321z"/>
	<path d="M634.7,343l-11.1,11.3c-1.3,1.4-1.3,3.6,0,5l11.3,11.6c1.4,1.4,3.6,1.5,5,0.1l11.1-10.5c1.4-1.3,1.5-3.5,0.2-5l-11.3-12.4
		c-1.3-1.4-3.6-1.5-5-0.2C634.8,342.9,634.7,343,634.7,343z"/>
	<path d="M656.7,365l-11.1,11.3c-1.4,1.4-1.4,3.6,0,5l11.3,11.6c1.4,1.4,3.6,1.5,5,0.1l11.1-10.5c1.4-1.3,1.5-3.5,0.2-5l-11.3-12.3
		c-1.3-1.5-3.5-1.6-5-0.4C656.9,364.9,656.8,365,656.7,365z"/>
	<path d="M680.2,385.7l-13.8,14c-0.6,0.6-0.6,1.7,0,2.3l13.9,14.2c0.6,0.6,1.7,0.6,2.3,0l13.8-13c0.7-0.6,0.7-1.7,0.1-2.3
		l-13.9-15.2C681.9,385,680.9,385,680.2,385.7C680.2,385.6,680.2,385.6,680.2,385.7z"/>
	<path d="M702.2,407.7l-13.8,14c-0.6,0.6-0.6,1.7,0,2.3l13.9,14.2c0.6,0.6,1.7,0.6,2.3,0l13.8-13c0.7-0.6,0.7-1.7,0.1-2.3
		l-13.9-15.2C704,407.1,702.9,407,702.2,407.7C702.2,407.6,702.2,407.7,702.2,407.7z"/>
	<path d="M721.7,427.2l-13.8,14c-0.6,0.6-0.6,1.7,0,2.3l13.9,14.2c0.6,0.6,1.7,0.6,2.3,0l13.8-13c0.7-0.6,0.7-1.7,0.1-2.3
		l-13.9-15.1C723.5,426.6,722.4,426.5,721.7,427.2C721.7,427.1,721.7,427.2,721.7,427.2z"/>
	<path d="M743.5,449L729.8,463c-0.6,0.6-0.6,1.7,0,2.3l13.9,14.2c0.6,0.6,1.7,0.6,2.3,0l13.8-13c0.7-0.6,0.7-1.7,0.1-2.3L745.9,449
		C745.3,448.4,744.2,448.3,743.5,449C743.6,449,743.5,449,743.5,449z"/>
	<path d="M764.7,470.2l-13.8,13.9c-0.6,0.6-0.6,1.7,0,2.3l13.9,14.2c0.6,0.6,1.7,0.6,2.3,0l13.8-13c0.7-0.6,0.7-1.7,0.1-2.3
		L767,470.2C766.4,469.6,765.4,469.5,764.7,470.2C764.7,470.2,764.7,470.2,764.7,470.2z"/>
	<path d="M785.8,491.3l-13.8,14c-0.6,0.6-0.6,1.7,0,2.3l13.9,14.2c0.6,0.6,1.7,0.6,2.3,0l13.8-13c0.7-0.6,0.7-1.7,0.1-2.3
		l-13.9-15.2C787.6,490.7,786.5,490.6,785.8,491.3C785.9,491.3,785.8,491.3,785.8,491.3z"/>
	<path d="M807,512.5l-13.8,14c-0.6,0.6-0.6,1.7,0,2.3L807,543c0.6,0.6,1.7,0.7,2.3,0l13.8-13c0.7-0.6,0.7-1.7,0.1-2.3l-13.9-15.2
		C808.7,511.9,807.7,511.8,807,512.5C807,512.5,807,512.5,807,512.5z"/>
	<path d="M550,298.6L539,309.8c-1.4,1.4-1.4,3.6,0,5c0,0,0,0,0,0l11.3,11.6c1.3,1.4,3.6,1.5,5,0.1c0,0,0,0,0,0l11.1-10.5
		c1.4-1.3,1.5-3.6,0.2-5l-11.3-12.4c-1.3-1.4-3.6-1.5-5-0.2C550.1,298.5,550.1,298.6,550,298.6z"/>
	<path d="M506,342.6l-11.1,11.2c-1.4,1.4-1.4,3.6,0,5l11.3,11.5c1.3,1.4,3.5,1.4,5,0.1l11.1-10.5c1.4-1.3,1.5-3.5,0.2-5l-11.3-12.3
		c-1.3-1.4-3.5-1.5-5-0.2C506.1,342.5,506.1,342.5,506,342.6z"/>
	<path d="M570.8,319.3l-11.1,11.2c-1.4,1.4-1.4,3.6,0,5c0,0,0,0,0,0l11.3,11.6c1.4,1.4,3.6,1.5,5,0.1l11.1-10.5
		c1.4-1.3,1.5-3.6,0.2-5l-11.3-12.3c-1.3-1.4-3.5-1.5-5-0.2C570.9,319.2,570.8,319.3,570.8,319.3z"/>
	<path d="M592.5,341.1l-11.1,11.2c-1.4,1.4-1.4,3.6,0,5l11.3,11.6c1.3,1.4,3.6,1.5,5,0.1c0,0,0,0,0,0l11.1-10.5
		c1.4-1.3,1.5-3.6,0.2-5l-11.3-12.3c-1.3-1.4-3.6-1.6-5-0.2C592.7,341,592.6,341.1,592.5,341.1z"/>
	<path d="M614.6,363.1l-11.1,11.2c-1.4,1.4-1.4,3.6,0,5l11.3,11.6c1.3,1.4,3.6,1.4,5,0.1l11.1-10.5c1.4-1.3,1.5-3.6,0.2-5
		l-11.3-12.3c-1.3-1.5-3.6-1.6-5-0.3C614.7,363.1,614.6,363.1,614.6,363.1z"/>
	<path d="M527.5,362.6l-11.1,11.2c-1.4,1.4-1.4,3.6,0,5l11.3,11.6c1.3,1.4,3.6,1.5,5,0.1c0,0,0,0,0,0l11.1-10.5
		c1.4-1.3,1.5-3.6,0.2-5l-11.3-12.3c-1.3-1.4-3.5-1.6-5-0.3C527.6,362.5,527.5,362.6,527.5,362.6z"/>
	<path d="M549.3,384.4l-11.1,11.2c-1.4,1.4-1.4,3.6,0,5c0,0,0,0,0,0l11.3,11.6c1.3,1.4,3.6,1.5,5,0.1c0,0,0,0,0,0l11.1-10.5
		c1.4-1.3,1.5-3.6,0.2-5l-11.3-12.3c-1.3-1.5-3.5-1.6-5-0.3C549.4,384.3,549.3,384.3,549.3,384.4z"/>
	<path d="M571.3,406.4l-11.1,11.2c-1.4,1.4-1.4,3.6,0,5l11.3,11.6c1.4,1.4,3.6,1.5,5,0.1l11.1-10.5c1.4-1.3,1.5-3.5,0.2-5
		l-11.3-12.3c-1.3-1.5-3.5-1.6-5-0.3C571.4,406.3,571.3,406.4,571.3,406.4z"/>
	<path d="M636.6,385.2l-11.1,11.2c-1.4,1.4-1.4,3.6,0,5l11.3,11.6c1.3,1.4,3.6,1.5,5,0.1c0,0,0,0,0,0l11.1-10.5
		c1.4-1.3,1.5-3.6,0.2-5c0,0,0,0,0,0l-11.3-12.3c-1.3-1.4-3.5-1.6-5-0.2C636.7,385.1,636.6,385.1,636.6,385.2z"/>
	<path d="M658.6,407.2l-11.1,11.2c-1.4,1.4-1.4,3.6,0,5l11.3,11.6c1.3,1.4,3.6,1.5,5,0.1c0,0,0,0,0,0l11.1-10.5
		c1.4-1.3,1.5-3.5,0.2-5l-11.3-12.4c-1.3-1.4-3.5-1.5-5-0.2C658.7,407.1,658.7,407.2,658.6,407.2z"/>
	<path d="M682,427.8l-13.8,14c-0.6,0.6-0.6,1.7,0,2.3l13.9,14.1c0.6,0.6,1.7,0.6,2.3,0l13.8-13c0.7-0.6,0.7-1.7,0.1-2.3l-13.9-15.2
		C683.8,427.1,682.8,427.1,682,427.8C682.1,427.8,682.1,427.8,682,427.8z"/>
	<path d="M701.6,447.3l-13.8,14c-0.6,0.6-0.6,1.7,0,2.3l13.9,14.2c0.6,0.6,1.7,0.6,2.3,0l13.8-13c0.7-0.6,0.7-1.7,0.1-2.3L704,447.3
		C703.3,446.7,702.3,446.6,701.6,447.3C701.6,447.2,701.6,447.3,701.6,447.3z"/>
	<path d="M723.4,469.2l-13.8,14c-0.6,0.6-0.6,1.7,0,2.3l13.9,14.2c0.6,0.6,1.7,0.6,2.3,0l13.8-13c0.7-0.6,0.7-1.7,0.1-2.3
		l-13.9-15.2C725.2,468.5,724.1,468.5,723.4,469.2C723.4,469.1,723.4,469.1,723.4,469.2z"/>
	<path d="M744.5,490.3l-13.8,14c-0.6,0.6-0.6,1.7,0,2.3l13.9,14.2c0.6,0.6,1.7,0.6,2.3,0l13.8-13c0.7-0.6,0.7-1.7,0.1-2.3L747,490.3
		C746.3,489.7,745.3,489.6,744.5,490.3C744.6,490.2,744.6,490.3,744.5,490.3z"/>
	<path d="M571.6,362l-11.1,11.2c-1.4,1.4-1.4,3.6,0,5l11.3,11.6c1.3,1.4,3.6,1.5,5,0.1c0,0,0,0,0,0l11.1-10.5c1.4-1.3,1.5-3.6,0.2-5
		l-11.3-12.3c-1.3-1.4-3.5-1.5-5-0.2C571.7,361.9,571.7,362,571.6,362z"/>
	<path d="M593.6,384.1l-11.1,11.2c-1.4,1.4-1.4,3.6,0,5l11.3,11.6c1.3,1.4,3.6,1.5,5,0.1c0,0,0,0,0,0l11.1-10.5
		c1.4-1.3,1.5-3.6,0.2-5l-11.3-12.3c-1.3-1.4-3.5-1.6-5-0.3C593.8,383.9,593.7,384,593.6,384.1z"/>
	<path d="M615.7,406.1l-11.1,11.2c-1.4,1.4-1.4,3.6,0,5l11.3,11.6c1.3,1.4,3.6,1.5,5,0.1c0,0,0,0,0,0l11.1-10.5
		c1.4-1.3,1.5-3.6,0.2-5l-11.3-12.3c-1.3-1.4-3.6-1.5-5-0.2C615.8,406,615.7,406,615.7,406.1z"/>
	<path d="M637.7,428.1l-11.1,11.2c-1.4,1.4-1.4,3.6,0,5l11.3,11.6c1.3,1.4,3.6,1.5,5,0.1c0,0,0,0,0,0l11.1-10.5
		c1.4-1.3,1.5-3.6,0.2-5l-11.3-12.3c-1.3-1.4-3.5-1.5-5-0.2C637.8,428,637.8,428.1,637.7,428.1z"/>
	<path d="M661.1,448.8l-13.8,13.9c-0.6,0.6-0.6,1.7,0,2.3l13.9,14.2c0.6,0.6,1.7,0.6,2.3,0l13.8-13c0.7-0.6,0.7-1.7,0.1-2.3
		l-13.9-15.2C662.9,448.1,661.8,448.1,661.1,448.8C661.2,448.7,661.1,448.7,661.1,448.8z"/>
	<path d="M680.6,468.3l-13.8,13.9c-0.6,0.6-0.6,1.7,0,2.3l13.9,14.2c0.6,0.6,1.7,0.6,2.3,0l13.8-13c0.7-0.6,0.7-1.7,0.1-2.3
		L683,468.3C682.4,467.6,681.4,467.6,680.6,468.3C680.7,468.2,680.6,468.3,680.6,468.3z"/>
	<path d="M702.5,490.1l-13.8,14c-0.6,0.6-0.6,1.7,0,2.3l13.9,14.2c0.6,0.6,1.7,0.7,2.3,0l13.8-13c0.7-0.6,0.7-1.7,0.1-2.3
		l-13.9-15.2C704.2,489.5,703.2,489.4,702.5,490.1C702.5,490,702.5,490.1,702.5,490.1z"/>
	<path d="M723.6,511.3l-13.8,13.9c-0.6,0.6-0.6,1.7,0,2.3l13.9,14.2c0.6,0.6,1.7,0.7,2.3,0l13.8-13c0.7-0.6,0.7-1.7,0.1-2.3
		L726,511.3c-0.6-0.7-1.6-0.7-2.3-0.1C723.7,511.2,723.6,511.2,723.6,511.3z"/>
	<path d="M765.7,511.5l-13.8,14c-0.6,0.6-0.6,1.7,0,2.3l13.9,14.2c0.6,0.6,1.7,0.7,2.3,0l13.8-13c0.7-0.6,0.7-1.7,0.1-2.3
		l-13.9-15.2C767.5,510.9,766.5,510.8,765.7,511.5C765.7,511.4,765.7,511.4,765.7,511.5z"/>
	<path d="M786.8,532.6L773,546.6c-0.6,0.6-0.6,1.7,0,2.3l13.9,14.2c0.6,0.6,1.7,0.7,2.3,0l13.8-13c0.7-0.6,0.7-1.7,0.1-2.3
		l-13.9-15.2C788.6,532,787.6,531.9,786.8,532.6C786.9,532.6,786.9,532.6,786.8,532.6z"/>
	<path d="M679.7,512.9l-13,13.1c-0.8,0.9-0.8,2.2,0,3.1l13.1,13.4c0.8,0.9,2.2,0.9,3.1,0.1l13-12.2c0.9-0.8,0.9-2.2,0.1-3.1
		L682.9,513c-0.8-0.9-2.2-1-3.1-0.2C679.8,512.8,679.7,512.8,679.7,512.9z"/>
	<path d="M700.8,534l-13,13.1c-0.8,0.9-0.8,2.2,0,3.1l13.1,13.4c0.8,0.9,2.2,0.9,3.1,0.1l13-12.2c0.9-0.8,0.9-2.2,0.1-3.1L704,534.1
		C703.2,533.2,701.8,533.1,700.8,534C700.9,534,700.9,534,700.8,534z"/>
	<path d="M722,555.2l-13,13.1c-0.8,0.9-0.8,2.2,0,3.1l13.1,13.4c0.8,0.9,2.2,0.9,3.1,0.1l13-12.2c0.9-0.8,0.9-2.2,0.1-3.1
		l-13.1-14.3c-0.8-0.9-2.2-1-3.1-0.2C722.1,555.1,722.1,555.1,722,555.2z"/>
	<path d="M743.6,575.9l-13.8,14c-0.6,0.6-0.6,1.7,0,2.3l13.9,14.2c0.6,0.6,1.7,0.6,2.3,0l13.8-13c0.7-0.6,0.7-1.7,0.1-2.3L746,575.9
		C745.3,575.2,744.3,575.2,743.6,575.9C743.6,575.8,743.6,575.9,743.6,575.9z"/>
	<path d="M528.2,319.2l-11.8,12.1c-1.4,1.4-1.4,3.6,0,5c0,0,0,0,0,0l33,32.7c1.4,1.3,3.5,1.4,4.9,0.1l12.3-11.6
		c1.4-1.3,1.5-3.6,0.2-5c0,0-0.1-0.1-0.1-0.1l-33.5-33.1C531.8,317.8,529.6,317.8,528.2,319.2z"/>
	<path d="M744.2,532.6l-14.5,14.7c-0.6,0.7-0.6,1.7,0,2.3l35.6,35.3c0.6,0.6,1.7,0.6,2.3,0l15.1-14.2c0.7-0.6,0.7-1.7,0-2.3
		c0,0,0,0,0,0l-36.2-35.8C745.9,531.9,744.9,531.9,744.2,532.6z"/>
	<path d="M594,427.1l-13.8,13.7c-0.6,0.6-0.6,1.7,0,2.3c0,0,0,0,0,0l76.8,78.7c0.6,0.6,1.7,0.6,2.3,0l15-14.1c0.7-0.6,0.7-1.7,0-2.3
		c0,0,0,0,0,0l-78-78.2C595.7,426.5,594.7,426.5,594,427.1z"/>
</g>
<path class="st1" d="M570.2,276L559,287.3c-1.4,1.4-1.4,3.6,0,5l11.3,11.6c1.4,1.4,3.6,1.5,5,0.1l11.1-10.5c1.4-1.3,1.5-3.5,0.2-5
	l-11.3-12.3c-1.3-1.4-3.5-1.6-5-0.3C570.3,275.9,570.2,276,570.2,276z"/>
<path class="st1" d="M590.9,296.8L579.8,308c-1.4,1.4-1.4,3.6,0,5l11.3,11.6c1.3,1.4,3.6,1.5,5,0.1c0,0,0,0,0,0l11.1-10.5
	c1.4-1.3,1.5-3.6,0.2-5L596,296.9c-1.3-1.4-3.5-1.5-5-0.2C591,296.7,591,296.7,590.9,296.8z"/>
<path class="st1" d="M612.7,318.6l-11.1,11.2c-1.3,1.4-1.3,3.6,0,5l11.3,11.5c1.4,1.4,3.6,1.5,5,0.1l11.1-10.5
	c1.4-1.3,1.5-3.6,0.2-5c0,0,0,0,0,0l-11.3-12.3c-1.3-1.4-3.6-1.5-5-0.2C612.8,318.4,612.7,318.5,612.7,318.6z"/>
<path class="st1" d="M634.7,340.6l-11.1,11.2c-1.4,1.4-1.4,3.6,0,5l11.3,11.6c1.4,1.4,3.6,1.5,5,0.1L651,358c1.4-1.3,1.5-3.5,0.2-5
	l-11.3-12.4c-1.3-1.4-3.6-1.5-5-0.2C634.8,340.5,634.7,340.5,634.7,340.6z"/>
<path class="st1" d="M656.7,362.6l-11.1,11.2c-1.4,1.4-1.4,3.6,0,5l11.3,11.6c1.4,1.4,3.6,1.5,5,0.1L673,380c1.4-1.3,1.5-3.5,0.2-5
	c0,0,0,0,0,0l-11.3-12.3c-1.3-1.5-3.5-1.6-5-0.3C656.9,362.5,656.8,362.6,656.7,362.6z"/>
<path class="st1" d="M680.2,383.3l-13.8,13.9c-0.6,0.6-0.6,1.7,0,2.3l13.9,14.2c0.6,0.6,1.7,0.7,2.3,0l13.8-13
	c0.7-0.6,0.7-1.7,0.1-2.3l-13.9-15.2C681.9,382.6,680.9,382.6,680.2,383.3C680.2,383.2,680.2,383.3,680.2,383.3z"/>
<path class="st1" d="M702.2,405.3l-13.8,14c-0.6,0.6-0.6,1.7,0,2.3l13.9,14.2c0.6,0.6,1.7,0.6,2.3,0l13.8-13
	c0.7-0.6,0.7-1.7,0.1-2.3l-13.9-15.2C704,404.6,702.9,404.6,702.2,405.3C702.2,405.2,702.2,405.3,702.2,405.3z"/>
<path class="st1" d="M721.7,424.8l-13.8,13.9c-0.6,0.6-0.6,1.7,0,2.3l13.9,14.3c0.6,0.6,1.7,0.6,2.3,0l13.8-13
	c0.7-0.6,0.7-1.7,0.1-2.3l-13.9-15.2C723.5,424.1,722.4,424.1,721.7,424.8C721.7,424.7,721.7,424.7,721.7,424.8z"/>
<path class="st1" d="M743.5,446.6l-13.8,13.9c-0.6,0.6-0.6,1.7,0,2.3l13.9,14.2c0.6,0.6,1.7,0.7,2.3,0l13.8-13
	c0.7-0.6,0.7-1.7,0.1-2.3l-13.9-15.2C745.3,446,744.3,445.9,743.5,446.6C743.6,446.6,743.5,446.6,743.5,446.6z"/>
<path class="st1" d="M764.7,467.8l-13.8,13.9c-0.6,0.6-0.6,1.7,0,2.3l13.9,14.3c0.6,0.6,1.7,0.6,2.3,0l13.8-13
	c0.7-0.6,0.7-1.7,0.1-2.3L767,467.8C766.4,467.1,765.4,467.1,764.7,467.8C764.7,467.7,764.7,467.8,764.7,467.8z"/>
<path class="st1" d="M785.8,488.9l-13.8,14c-0.6,0.6-0.6,1.7,0,2.3l13.9,14.2c0.6,0.6,1.7,0.6,2.3,0l13.8-13
	c0.7-0.6,0.7-1.7,0.1-2.3L788.2,489C787.6,488.3,786.6,488.2,785.8,488.9C785.9,488.9,785.8,488.9,785.8,488.9z"/>
<path class="st1" d="M807,510.1l-13.8,14c-0.6,0.6-0.6,1.7,0,2.3l13.8,14.2c0.6,0.6,1.7,0.6,2.3,0l13.8-13c0.7-0.6,0.7-1.7,0.1-2.3
	l-13.9-15.2C808.7,509.4,807.7,509.4,807,510.1C807,510,807,510,807,510.1z"/>
<path class="st1" d="M550,296.2L539,307.4c-1.4,1.4-1.4,3.6,0,5l11.3,11.6c1.3,1.4,3.6,1.5,5,0.1c0,0,0,0,0,0l11.1-10.5
	c1.4-1.3,1.5-3.6,0.2-5l-11.3-12.3c-1.3-1.4-3.6-1.5-5-0.2C550.1,296.1,550.1,296.1,550,296.2z"/>
<path class="st1" d="M506,340.2l-11.1,11.2c-1.4,1.4-1.4,3.6,0,5l11.3,11.6c1.3,1.4,3.5,1.4,5,0.1l11.1-10.5c1.4-1.3,1.5-3.6,0.2-5
	l-11.3-12.3c-1.3-1.4-3.5-1.6-5-0.3C506.1,340.1,506.1,340.1,506,340.2z"/>
<path class="st1" d="M570.8,316.9l-11.1,11.2c-1.4,1.4-1.4,3.6,0,5l11.3,11.6c1.3,1.4,3.6,1.5,5,0.1c0,0,0,0,0,0l11.1-10.5
	c1.4-1.3,1.5-3.6,0.2-5L575.9,317c-1.3-1.4-3.5-1.5-5-0.2C570.9,316.8,570.8,316.9,570.8,316.9z"/>
<path class="st1" d="M592.5,338.7l-11.1,11.2c-1.4,1.4-1.4,3.6,0,5l11.3,11.6c1.3,1.4,3.6,1.5,5,0.1c0,0,0,0,0,0l11.1-10.5
	c1.4-1.3,1.5-3.6,0.2-5l-11.3-12.3c-1.3-1.4-3.6-1.5-5-0.2C592.6,338.6,592.6,338.6,592.5,338.7z"/>
<path class="st1" d="M614.6,360.7l-11.1,11.2c-1.4,1.4-1.4,3.6,0,5l11.3,11.6c1.3,1.4,3.5,1.4,5,0.1l11.1-10.5
	c1.4-1.3,1.5-3.6,0.2-5l-11.3-12.3c-1.3-1.4-3.6-1.5-5-0.2C614.7,360.6,614.6,360.7,614.6,360.7z"/>
<path class="st1" d="M527.5,360.2l-11.1,11.2c-1.4,1.4-1.4,3.6,0,5l11.3,11.6c1.3,1.4,3.6,1.5,5,0.1c0,0,0,0,0,0l11.1-10.5
	c1.4-1.3,1.5-3.6,0.2-5l-11.3-12.3c-1.3-1.4-3.5-1.5-5-0.2C527.6,360.1,527.5,360.2,527.5,360.2z"/>
<path class="st1" d="M549.3,382l-11.1,11.2c-1.4,1.4-1.4,3.6,0,5l11.3,11.6c1.4,1.4,3.6,1.5,5,0.1l11.1-10.5c1.4-1.3,1.5-3.6,0.2-5
	L554.4,382c-1.3-1.4-3.6-1.6-5-0.2C549.4,381.8,549.3,381.9,549.3,382z"/>
<path class="st1" d="M571.3,404l-11.1,11.3c-1.4,1.4-1.4,3.6,0,5l11.3,11.6c1.4,1.4,3.6,1.5,5,0.1l11.1-10.5c1.4-1.3,1.5-3.5,0.2-5
	l-11.3-12.3c-1.3-1.5-3.5-1.6-5-0.3C571.4,403.9,571.3,403.9,571.3,404z"/>
<path class="st1" d="M636.6,382.7L625.5,394c-1.4,1.4-1.4,3.6,0,5l11.3,11.6c1.3,1.4,3.6,1.5,5,0.1c0,0,0,0,0,0l11.1-10.5
	c1.4-1.3,1.5-3.5,0.2-5c0,0,0,0,0,0l-11.3-12.3c-1.3-1.4-3.5-1.6-5-0.3C636.7,382.6,636.7,382.7,636.6,382.7z"/>
<path class="st1" d="M658.6,404.8L647.5,416c-1.4,1.4-1.4,3.6,0,5l11.3,11.6c1.3,1.4,3.6,1.5,5,0.1c0,0,0,0,0,0l11.1-10.5
	c1.4-1.3,1.5-3.5,0.2-5l-11.3-12.3c-1.3-1.5-3.5-1.6-5-0.3C658.8,404.6,658.7,404.7,658.6,404.8z"/>
<path class="st1" d="M682,425.4l-13.8,14c-0.6,0.6-0.6,1.7,0,2.3l13.9,14.2c0.6,0.6,1.7,0.6,2.3,0l13.8-13c0.7-0.6,0.7-1.7,0.1-2.3
	l-13.9-15.2C683.8,424.7,682.8,424.7,682,425.4C682.1,425.4,682.1,425.4,682,425.4z"/>
<path class="st1" d="M701.6,444.9l-13.8,14c-0.6,0.6-0.6,1.7,0,2.3l13.9,14.2c0.6,0.6,1.7,0.6,2.3,0l13.8-13
	c0.7-0.6,0.7-1.7,0.1-2.3L704,444.9C703.3,444.2,702.3,444.2,701.6,444.9C701.6,444.9,701.6,444.9,701.6,444.9z"/>
<path class="st1" d="M723.4,466.7l-13.8,14c-0.6,0.6-0.6,1.7,0,2.3l13.9,14.2c0.6,0.6,1.7,0.6,2.3,0l13.8-13
	c0.7-0.6,0.7-1.7,0.1-2.3l-13.9-15.1C725.2,466.1,724.1,466.1,723.4,466.7C723.4,466.7,723.4,466.7,723.4,466.7z"/>
<path class="st1" d="M744.5,487.9l-13.8,14c-0.6,0.6-0.6,1.7,0,2.3l13.9,14.2c0.6,0.6,1.7,0.6,2.3,0l13.8-13
	c0.7-0.6,0.7-1.7,0.1-2.3L747,487.9C746.3,487.2,745.3,487.2,744.5,487.9C744.6,487.8,744.6,487.9,744.5,487.9z"/>
<path class="st1" d="M571.6,359.6l-11.1,11.2c-1.4,1.4-1.4,3.6,0,5l11.3,11.6c1.3,1.4,3.6,1.5,5,0.1c0,0,0,0,0,0l11.1-10.5
	c1.4-1.3,1.5-3.6,0.2-5l-11.3-12.3c-1.3-1.4-3.5-1.5-5-0.2C571.7,359.5,571.7,359.6,571.6,359.6z"/>
<path class="st1" d="M593.6,381.7l-11.1,11.2c-1.4,1.4-1.4,3.6,0,5c0,0,0,0,0,0l11.3,11.6c1.3,1.4,3.6,1.5,5,0.1c0,0,0,0,0,0
	l11.1-10.5c1.4-1.3,1.5-3.6,0.2-5l-11.3-12.3c-1.3-1.5-3.5-1.6-5-0.3C593.8,381.5,593.7,381.6,593.6,381.7z"/>
<path class="st1" d="M615.7,403.7l-11.1,11.2c-1.4,1.4-1.4,3.6,0,5l11.3,11.6c1.3,1.4,3.6,1.5,5,0.1c0,0,0,0,0,0l11.1-10.5
	c1.4-1.3,1.5-3.6,0.2-5l-11.3-12.3c-1.3-1.4-3.5-1.5-5-0.2C615.8,403.6,615.7,403.6,615.7,403.7z"/>
<path class="st1" d="M637.7,425.7l-11.1,11.2c-1.4,1.4-1.4,3.6,0,5c0,0,0,0,0,0l11.3,11.6c1.3,1.4,3.6,1.5,5,0.1c0,0,0,0,0,0
	l11.1-10.5c1.4-1.3,1.5-3.6,0.2-5l-11.3-12.3c-1.3-1.5-3.5-1.6-5-0.3C637.8,425.6,637.8,425.6,637.7,425.7z"/>
<path class="st1" d="M661.1,446.3l-13.8,14c-0.6,0.6-0.6,1.7,0,2.3l13.9,14.2c0.6,0.6,1.7,0.7,2.3,0l13.8-13
	c0.7-0.6,0.7-1.7,0.1-2.3l-13.9-15.2C662.9,445.7,661.9,445.7,661.1,446.3C661.2,446.3,661.1,446.3,661.1,446.3z"/>
<path class="st1" d="M680.6,465.8l-13.8,13.9c-0.6,0.6-0.6,1.7,0,2.3l13.9,14.2c0.6,0.6,1.7,0.7,2.3,0l13.8-13
	c0.7-0.6,0.7-1.7,0.1-2.3L683,465.9C682.4,465.2,681.4,465.1,680.6,465.8C680.7,465.8,680.6,465.8,680.6,465.8z"/>
<path class="st1" d="M702.5,487.7l-13.8,14c-0.6,0.6-0.6,1.7,0,2.3l13.9,14.2c0.6,0.6,1.7,0.6,2.3,0l13.8-13
	c0.7-0.6,0.7-1.7,0.1-2.3l-13.9-15.2C704.2,487,703.2,487,702.5,487.7C702.5,487.6,702.5,487.6,702.5,487.7z"/>
<path class="st1" d="M723.6,508.8l-13.8,13.9c-0.6,0.6-0.6,1.7,0,2.3l13.9,14.2c0.6,0.6,1.7,0.6,2.3,0l13.8-13
	c0.7-0.6,0.7-1.7,0.1-2.3L726,508.9c-0.6-0.7-1.6-0.7-2.3-0.1C723.7,508.8,723.6,508.8,723.6,508.8z"/>
<path class="st1" d="M765.7,509l-13.8,14c-0.6,0.6-0.6,1.7,0,2.3l13.9,14.2c0.6,0.6,1.7,0.6,2.3,0l13.8-13c0.7-0.6,0.7-1.7,0.1-2.3
	l-13.9-15.2C767.5,508.4,766.4,508.4,765.7,509C765.7,509,765.7,509,765.7,509z"/>
<path class="st1" d="M786.8,530.2l-13.8,14c-0.6,0.6-0.6,1.7,0,2.3l13.9,14.2c0.6,0.6,1.7,0.6,2.3,0l13.8-13
	c0.7-0.6,0.7-1.7,0.1-2.3l-13.9-15.1C788.6,529.6,787.6,529.5,786.8,530.2C786.9,530.1,786.9,530.2,786.8,530.2z"/>
<path class="st1" d="M679.7,510.4l-13,13.1c-0.8,0.9-0.8,2.2,0,3.1l13.1,13.4c0.8,0.9,2.2,0.9,3.1,0.1l13-12.2
	c0.9-0.8,0.9-2.2,0.1-3.1l-13.1-14.3C682.1,509.6,680.7,509.5,679.7,510.4C679.7,510.4,679.7,510.4,679.7,510.4z"/>
<path class="st1" d="M700.8,531.6l-13,13.1c-0.8,0.9-0.8,2.2,0,3.1l13.1,13.5c0.9,0.8,2.2,0.8,3.1,0l13-12.2
	c0.9-0.8,0.9-2.2,0.1-3.1L704,531.6C703.2,530.7,701.8,530.7,700.8,531.6C700.9,531.6,700.9,531.6,700.8,531.6z"/>
<path class="st1" d="M722,552.7l-13,13.1c-0.8,0.9-0.8,2.2,0,3.1l13.1,13.4c0.8,0.9,2.2,0.9,3.1,0.1l13-12.2
	c0.9-0.8,0.9-2.2,0.1-3.1l-13.1-14.3C724.4,551.9,723,551.8,722,552.7C722.1,552.7,722.1,552.7,722,552.7z"/>
<path class="st1" d="M743.6,573.5l-13.8,14c-0.6,0.6-0.6,1.7,0,2.3l13.9,14.2c0.6,0.6,1.7,0.7,2.3,0l13.8-13
	c0.7-0.6,0.7-1.7,0.1-2.3L746,573.6C745.4,572.9,744.3,572.8,743.6,573.5C743.6,573.4,743.6,573.4,743.6,573.5z"/>
<path class="st1" d="M528.2,316.8l-11.8,12.1c-1.4,1.4-1.4,3.6,0,5c0,0,0,0,0,0l33,32.7c1.4,1.3,3.5,1.4,4.9,0.1l12.3-11.6
	c1.4-1.3,1.5-3.6,0.2-5c0,0-0.1-0.1-0.1-0.1l-33.5-33.1C531.8,315.4,529.6,315.4,528.2,316.8z"/>
<path class="st1" d="M744.2,530.1l-14.5,14.8c-0.6,0.7-0.6,1.7,0,2.3l35.6,35.3c0.6,0.6,1.7,0.6,2.3,0l15.1-14.2
	c0.7-0.6,0.7-1.7,0-2.3c0,0,0,0,0,0l-36.2-35.8C745.9,529.5,744.9,529.5,744.2,530.1z"/>
<path class="st1" d="M594,424.7l-13.8,13.7c-0.6,0.6-0.6,1.7,0,2.3c0,0,0,0,0,0l76.8,78.7c0.6,0.6,1.7,0.6,2.3,0l15-14.1
	c0.7-0.6,0.7-1.7,0-2.3c0,0,0,0,0,0l-78-78.2C595.7,424,594.7,424,594,424.7z"/>
<path class="st2" d="M539.9,434.3l-60.6,60.2c-3.5,3.5-3.5,9.1-0.1,12.7l112.1,115.2c3.5,3.6,9.2,3.6,12.7,0.2c0,0,0,0,0,0
	l62.4-61.4c3.5-3.5,3.6-9.2,0.1-12.7c0,0,0,0,0,0l-113.9-114C549.1,430.8,543.4,430.8,539.9,434.3z"/>
<path class="st5" d="M539.9,431.8l-60.6,60.3c-3.5,3.5-3.5,9.1-0.1,12.7l112.1,115.2c3.5,3.6,9.2,3.6,12.7,0.2c0,0,0,0,0,0
	l62.4-61.4c3.5-3.5,3.6-9.2,0.1-12.7c0,0,0,0,0,0l-113.9-114C549.1,428.4,543.4,428.3,539.9,431.8z"/>
<path class="st6" d="M598.1,115.7l-15.4,107.3l284.4,283.5l14.5-106.4c0.8-5.8-1.2-11.7-5.3-15.8L604.4,113.6
	c-1.5-1.5-3.8-1.4-5.3,0C598.6,114.2,598.2,114.9,598.1,115.7z"/>
<ellipse class="st0" cx="295.1" cy="682.4" rx="23.1" ry="3.2"/>
<ellipse class="st0" cx="206.6" cy="691.3" rx="23.1" ry="3.2"/>
<ellipse class="st0" cx="102.3" cy="679.2" rx="23.1" ry="3.2"/>
<ellipse class="st0" cx="242" cy="716.9" rx="16.4" ry="2.3"/>
<ellipse class="st0" cx="150.1" cy="714.6" rx="16.4" ry="2.3"/>
<path class="st6" d="M206.1,690.6c0,0,32.4-106.3-5.1-148.8c-28-31.8-59.9-28-74.1-24.1c-7.5,2-13.7,7.1-17,14.1
	c-5,10.8-4.1,28.2,31.1,48.6c58.9,34.1,62.6,80.9,62.6,80.9L206.1,690.6z"/>
<path class="st7" d="M131.9,532.8c0,0,95.6,29.9,74.1,157.8"/>
<path class="st7" d="M187.7,543.5c0,0-13.1,8.9-9,22.2"/>
<path class="st7" d="M141.5,551.4c0,0,8-8.2,17.8-3.7"/>
<path class="st7" d="M179.3,592.5c0,0,14.1-7.2,17.8,1.8"/>
<path class="st7" d="M214.2,607.5c0,0-10.6-0.8-10.8,4.2"/>
<path class="st6" d="M207.4,691.5c0,0-38-77.2-48.4-75.5c-4.9,0.8-7.2,5.7-8.3,10.6c-1.3,6.3-0.6,12.9,2.1,18.8
	C158.2,657.7,172.6,681.1,207.4,691.5z"/>
<path class="st7" d="M159.3,630.6c0,0,39.8,57.8,47.5,60.3"/>
<line class="st7" x1="155.6" y1="639.6" x2="164.9" y2="639.6"/>
<line class="st7" x1="166.7" y1="660.8" x2="181.3" y2="661.4"/>
<line class="st7" x1="175.6" y1="643.8" x2="174" y2="651.4"/>
<line class="st7" x1="191.1" y1="667" x2="190.8" y2="673.8"/>
<path class="st6" d="M206.2,691.5c0,0,38-77.2,48.4-75.5c5,0.8,7.2,5.7,8.3,10.6c1.3,6.3,0.6,12.9-2.1,18.8
	C255.4,657.7,241,681.1,206.2,691.5z"/>
<path class="st7" d="M254.4,630.6c0,0-39.9,57.8-47.5,60.3"/>
<line class="st7" x1="258" y1="639.6" x2="248.7" y2="639.6"/>
<line class="st7" x1="246.9" y1="660.8" x2="232.3" y2="661.4"/>
<line class="st7" x1="238" y1="643.8" x2="239.6" y2="651.4"/>
<line class="st7" x1="222.5" y1="667" x2="222.8" y2="673.8"/>
<path class="st6" d="M141,709.5c-1-0.8-1.8-2-2.2-3.3c-0.3-1.3,0.3-2.7,1.5-3.3c1.4-0.5,2.9,0.4,4,1.4s2.4,2.1,3.9,1.9
	c-1.5-1.4-2.2-3.5-1.8-5.5c0.1-0.4,0.2-0.8,0.5-1.1c0.8-0.8,2.2-0.5,3.1,0.2c2.9,2.1,3.8,6,3.8,9.6c0.2-1.3,0.2-2.7,0.1-4
	c-0.1-1.3,0.4-2.7,1.5-3.5c0.7-0.4,1.5-0.6,2.3-0.5c1.3-0.2,2.7,0.2,3.7,1c1.1,1.2,0.8,3.2-0.1,4.5c-1.1,1.2-2.4,2.3-3.8,3.1
	c-1.1,0.6-2,1.5-2.7,2.6c-0.1,0.1-0.1,0.3-0.2,0.5h-8.3C144.3,712,142.6,710.9,141,709.5z"/>
<path class="st6" d="M285.7,678.4c-1-0.8-1.8-2-2.2-3.3c-0.3-1.3,0.3-2.7,1.5-3.3c1.4-0.5,2.9,0.4,4,1.4s2.4,2.1,3.9,1.9
	c-1.5-1.4-2.2-3.5-1.8-5.5c0.1-0.4,0.2-0.8,0.5-1.1c0.8-0.8,2.2-0.5,3.1,0.2c2.9,2.1,3.8,6,3.8,9.6c0.2-1.3,0.2-2.7,0.1-4
	c-0.1-1.3,0.4-2.7,1.5-3.5c0.7-0.4,1.5-0.6,2.3-0.5c1.3-0.2,2.6,0.2,3.7,1c1.1,1.2,0.8,3.2-0.1,4.5c-1.1,1.2-2.4,2.2-3.8,3
	c-1.1,0.7-2,1.5-2.7,2.6c-0.1,0.1-0.2,0.3-0.2,0.5h-8.3C289,680.9,287.3,679.8,285.7,678.4z"/>
<path class="st6" d="M237.5,709.5c-1-0.8-1.8-2-2.2-3.3c-0.3-1.3,0.3-2.7,1.5-3.3c1.4-0.5,2.9,0.4,4,1.4s2.4,2.1,3.9,1.9
	c-1.5-1.4-2.2-3.5-1.8-5.5c0.1-0.4,0.2-0.8,0.5-1.1c0.8-0.8,2.2-0.5,3.1,0.2c2.9,2.1,3.8,6,3.8,9.6c0.2-1.3,0.2-2.7,0-4
	c-0.1-1.3,0.4-2.6,1.5-3.5c0.7-0.4,1.5-0.6,2.3-0.5c1.3-0.2,2.7,0.2,3.7,1c1.1,1.2,0.8,3.2-0.1,4.5c-1.1,1.2-2.4,2.3-3.8,3.1
	c-1.1,0.6-2,1.5-2.7,2.6c-0.1,0.1-0.1,0.3-0.2,0.5h-8.3C240.8,712.1,239,710.9,237.5,709.5z"/>
<path class="st6" d="M100.8,646.6c0,0-3.1,4,1.4,10.2s8.3,11.3,6.8,15.1c0,0-6.8-11.4-12.4-11.5S94.7,653.5,100.8,646.6z"/>
<path class="st2" d="M100.8,646.6c-0.3,0.4-0.5,0.8-0.6,1.3c-5.4,6.4-8.3,12.3-3.1,12.5c4.9,0.1,10.7,8.8,12.1,11
	c0,0.2-0.1,0.3-0.2,0.5c0,0-6.8-11.4-12.4-11.5S94.7,653.5,100.8,646.6z"/>
<path class="st8" d="M95,651.8c0,1.4,0.2,2.6,0.4,2.6s0.4-1.2,0.4-2.6s-0.2-0.8-0.4-0.8S95,650.4,95,651.8z"/>
<path class="st8" d="M93,653.5c1.3,0.7,2.3,1.1,2.4,0.9s-0.8-0.9-2.1-1.5s-0.8-0.2-0.9,0S91.8,652.9,93,653.5z"/>
<path class="st6" d="M117.1,646.6c0,0,3.1,4-1.4,10.2s-8.3,11.3-6.8,15.1c0,0,6.8-11.4,12.4-11.5S123.2,653.5,117.1,646.6z"/>
<path class="st2" d="M117.1,646.6c0.3,0.4,0.5,0.8,0.6,1.3c5.4,6.4,8.3,12.3,3.1,12.5c-4.9,0.1-10.7,8.8-12.1,11
	c0,0.2,0.1,0.3,0.2,0.5c0,0,6.8-11.4,12.4-11.5S123.2,653.5,117.1,646.6z"/>
<path class="st8" d="M122.9,651.8c0,1.4-0.2,2.6-0.4,2.6s-0.4-1.2-0.4-2.6s0.2-0.8,0.4-0.8S122.9,650.4,122.9,651.8z"/>
<path class="st8" d="M124.9,653.5c-1.3,0.7-2.3,1.1-2.4,0.9s0.9-0.9,2.1-1.5s0.8-0.2,0.9,0S126.1,652.9,124.9,653.5z"/>
<path class="st9" d="M121.9,671.4c0,0-8.7-0.3-11.3-2.1s-13.3-4.1-14-1.1s-13,14.8-3.2,14.9s22.7-1.5,25.3-3.1
	S121.9,671.4,121.9,671.4z"/>
<path class="st10" d="M93.3,682c9.8,0.1,22.7-1.5,25.3-3.1c2-1.2,2.8-5.5,3-7.5h0.3c0,0-0.6,7-3.1,8.6s-15.6,3.2-25.3,3.1
	c-2.8,0-3.8-1-3.8-2.5C90.1,681.4,91.2,682,93.3,682z"/>
<circle class="st0" cx="134.4" cy="117.6" r="21.6"/>
<circle class="st0" cx="608.7" cy="42" r="21.6"/>
<circle class="st0" cx="951.9" cy="127.4" r="21.6"/>
<circle class="st0" cx="177.7" cy="236.9" r="36.3"/>
<circle class="st0" cx="507.6" cy="789.5" r="36.3"/>
<ellipse transform="matrix(0.1602 -0.9871 0.9871 0.1602 73.2357 1623.2183)" class="st0" cx="990.5" cy="768.6" rx="36.3" ry="36.3"/>
</svg>
