<?xml version="1.0" encoding="utf-8"?>
<!-- Generator: Adobe Illustrator 24.0.2, SVG Export Plug-In . SVG Version: 6.00 Build 0)  -->
<svg version="1.1" id="_x30_2a143c3-6017-4373-a226-06a05c845178"
	 xmlns="http://www.w3.org/2000/svg" xmlns:xlink="http://www.w3.org/1999/xlink" x="0px" y="0px" viewBox="0 0 954 549.9"
	 style="enable-background:new 0 0 954 549.9;" xml:space="preserve">
<style type="text/css">
	.st0{opacity:0.5;fill:#6C63FF;enable-background:new    ;}
	.st1{fill:#6C63FF;}
	.st2{fill:none;stroke:#535461;stroke-miterlimit:10;}
	.st3{fill:url(#SVGID_1_);}
	.st4{fill:#535461;}
	.st5{fill:#FFFFFF;}
	.st6{fill:none;stroke:#535461;stroke-width:2;stroke-miterlimit:10;}
	.st7{opacity:0.7;fill:#6C63FF;enable-background:new    ;}
	.st8{opacity:0.8;fill:#6C63FF;enable-background:new    ;}
</style>
<title>finance</title>
<path class="st0" d="M236.7,360.1c-57.7-19.9-123.6-36.8-177.5-8.2c-6.8,3.6-13.6,8.2-17.2,15c-9.7,17.9,5.7,41.1-1.8,60
	S4.3,455.4,6.6,475.6c0.6,5.3,3.5,10.1,6.8,14.2c21.1,25.8,59.8,28.4,92.5,22s64.7-19.7,98-18c32,1.7,61.4,17,90.8,29.9
	c49.4,21.8,107.2,37.5,156.6,15.6c22.6-10.1,41.3-27.2,63-39.2c29.2-16,62.7-22.1,95.7-17.6c22,3.1,43,10.9,64.5,16.3
	c48.9,12.2,99.9,11.8,150.3,11.3c9.4-0.1,18.9-0.2,27.9-2.9c13.3-4,24.3-13.2,34.9-22.2c13.9-11.8,28.5-24.8,33-42.5
	c5.3-21-5.7-43.3-21.9-57.6s-37-22.1-57.3-29.6c-5-1.8-10.3-3.7-15.5-2.3c-3.4,0.9-6.2,3.2-8.7,5.6c-14.4,13.8-26.5,37.3-46.1,33.5
	c-7-1.3-12.7-6.2-18.3-10.7c-29.6-24-69.4-42.5-105.1-29.3c-26.1,9.7-44.5,34.6-71,43.4c-18.8,6.3-39.3,3.5-59.1,4.8
	c-28.8,1.8-56.8,11.9-85.7,11.3c-73.5-1.6-134.8-71.9-208-65.2c-5.7,0.5-12,1.8-15.5,6.4"/>
<path class="st1" d="M144,293.2c0,0-61.1,36.9,51.6,93.7c0,0,24.8-46.1-2.6-83.7c-11-15.2-31.6-19.7-48-10.5L144,293.2z"/>
<path class="st2" d="M144.7,292.4c0,0,52.3,40,50.9,94.4"/>
<path class="st1" d="M888.7,343.1c0,0-62.7-34.1-54.8,91.8c0,0,52.3-1.9,70.9-44.5c7.5-17.2,1-37.3-15.2-46.8L888.7,343.1z"/>
<path class="st2" d="M889.7,343.3c0,0-8.1,65.4-55.8,91.6"/>
<path class="st1" d="M16.6,331.2c0,0-61.1,36.9,51.6,93.7c0,0,24.8-46.1-2.6-83.7c-11-15.2-31.6-19.7-48-10.5L16.6,331.2z"/>
<path class="st2" d="M17.3,330.4c0,0,52.3,40,50.9,94.5"/>
<linearGradient id="SVGID_1_" gradientUnits="userSpaceOnUse" x1="569.11" y1="-44.41" x2="569.11" y2="321.37" gradientTransform="matrix(1 0 0 -1 -123 376.93)">
	<stop  offset="0" style="stop-color:#808080;stop-opacity:0.25"/>
	<stop  offset="0.54" style="stop-color:#808080;stop-opacity:0.12"/>
	<stop  offset="1" style="stop-color:#808080;stop-opacity:0.1"/>
</linearGradient>
<path class="st3" d="M779.4,379.2h-64.3c1.5-3,2.2-6.2,2.2-9.6V77.1c0-11.9-9.6-21.5-21.5-21.5l0,0H198.6
	c-11.9,0-21.5,9.6-21.5,21.5l0,0v292.6c0,3.3,0.8,6.6,2.2,9.6h-66.5c-3.1,0-5.7,2.5-5.7,5.7c0,0,0,0,0,0v4.6
	c0,17.6,14.2,31.8,31.8,31.8l0,0h614.4c17.6,0,31.8-14.2,31.8-31.8l0,0v-4.6C785.1,381.8,782.6,379.2,779.4,379.2
	C779.5,379.2,779.4,379.2,779.4,379.2z M383.5,397.4l-5.5-6.3h136.8l-6.1,6.3L383.5,397.4z"/>
<path class="st4" d="M206.4,59.7H688c12.8,0,23.3,10.4,23.3,23.3v281.5c0,12.8-10.4,23.3-23.3,23.3H206.4
	c-12.8,0-23.3-10.4-23.3-23.3V83C183.2,70.1,193.6,59.7,206.4,59.7z"/>
<rect x="194.3" y="107.5" class="st5" width="504.8" height="268"/>
<circle class="st5" cx="446.7" cy="84.2" r="4.5"/>
<path class="st4" d="M524.6,376l-17.3,17.8H385L369.3,376h-249c-3.1,0-5.6,2.5-5.6,5.6v4.5c0,17.2,13.9,31.1,31.1,31.1h600.5
	c17.2,0,31.1-13.9,31.1-31.1v-4.5c0-3.1-2.5-5.6-5.6-5.6H524.6z"/>
<polyline class="st6" points="258.8,124.2 258.8,352.1 635.7,352.1 "/>
<rect x="292.1" y="283.2" class="st0" width="38.9" height="60"/>
<rect x="358.8" y="229.8" class="st7" width="38.9" height="113.4"/>
<rect x="425.5" y="262" class="st0" width="38.9" height="81.2"/>
<rect x="492.3" y="212" class="st8" width="38.9" height="131.2"/>
<rect x="559" y="165.3" class="st1" width="38.9" height="177.9"/>
<polyline class="st6" points="311,246.5 378.8,185.3 445.5,243.1 511.1,173.1 577.9,145.3 "/>
<circle class="st1" cx="311" cy="246.5" r="7.8"/>
<circle class="st1" cx="444.4" cy="242" r="7.8"/>
<ellipse transform="matrix(0.1602 -0.9871 0.9871 0.1602 259.3304 651.0263)" class="st1" cx="512.3" cy="173.1" rx="7.8" ry="7.8"/>
<circle class="st1" cx="378.8" cy="184.2" r="7.8"/>
<circle class="st1" cx="577.9" cy="145.3" r="7.8"/>
<path class="st6" d="M82.7,141.7c0,0-26.2,54.2-9,118.4s11.8,141-5.4,160"/>
<circle class="st1" cx="82.7" cy="141.7" r="7.2"/>
<path class="st6" d="M71.8,176.6c0,0,27.2,4.9,34.4-5"/>
<path class="st6" d="M69.2,192.3c0,0-16.4-18.1-15.4-28.9"/>
<path class="st6" d="M67.8,225.5c0,0,14.9,3.9,28.4-25"/>
<path class="st6" d="M71.8,249.6c0,0-37-23.8-32.5-39.2"/>
<path class="st6" d="M77.6,276.8c0,0,25.9-23,23.2-45.6"/>
<path class="st6" d="M80.4,292.8c0,0-33-9.2-32-23.7"/>
<path class="st6" d="M82.7,311.9c0,0,20.8-19.3,23.5-31"/>
<path class="st6" d="M84.1,344.7c0,0-21.3-24.9-22.2-37.5"/>
<path class="st6" d="M84.1,365.3c0,0,23.9-26.5,25.7-39.2"/>
<circle class="st1" cx="53.8" cy="165.2" r="7.2"/>
<circle class="st1" cx="45.6" cy="269.2" r="7.2"/>
<circle class="st1" cx="39.3" cy="210.4" r="7.2"/>
<circle class="st1" cx="106.2" cy="171.5" r="7.2"/>
<circle class="st1" cx="106.2" cy="282.7" r="7.2"/>
<circle class="st1" cx="94.4" cy="200.5" r="7.2"/>
<circle class="st1" cx="108.9" cy="330.6" r="7.2"/>
<circle class="st1" cx="60.1" cy="311.6" r="7.2"/>
<circle class="st1" cx="101.7" cy="231.2" r="7.2"/>
</svg>
