<?xml version="1.0" encoding="utf-8"?>
<!-- Generator: Adobe Illustrator 24.0.2, SVG Export Plug-In . SVG Version: 6.00 Build 0)  -->
<svg version="1.1" id="a6afbdd4-4f8a-4a84-bbe8-d87b6169081e"
	 xmlns="http://www.w3.org/2000/svg" xmlns:xlink="http://www.w3.org/1999/xlink" x="0px" y="0px" viewBox="0 0 747.8 668.8"
	 style="enable-background:new 0 0 747.8 668.8;" xml:space="preserve">
<style type="text/css">
	.st0{fill:#2F2E41;}
	.st1{fill:#6C63FF;}
	.st2{fill:#D0CDE1;}
	.st3{fill:#3F3D56;}
	.st4{fill:#FFFFFF;}
	.st5{opacity:0.1;enable-background:new    ;}
	.st6{fill:#F2F2F2;}
</style>
<title>noted</title>
<path class="st0" d="M700,130.3c26.7,39,20.8,89.5,20.8,89.5s-49.2-12.7-76-51.7c-26.7-39-20.8-89.5-20.8-89.5S673.3,91.3,700,130.3
	z"/>
<path class="st1" d="M680.8,137.7c3.1,47.2,39,83.2,39,83.2s30.8-40.4,27.7-87.6c-3.1-47.2-39-83.2-39-83.2S677.7,90.6,680.8,137.7z
	"/>
<path class="st2" d="M374,1l362.8,182.4c6.2,3.1,9.9,9.6,9.4,16.5l-21.1,312.2c-0.3,4.7-4.4,8.2-9.1,7.9c-1.1-0.1-2.2-0.4-3.3-0.9
	l-371-189.4l19-321.1c0.3-5,4.6-8.9,9.6-8.6C371.7,0.1,372.9,0.4,374,1z"/>
<path class="st3" d="M378.2,7.3l353.9,177.9c6,3,9.6,9.4,9.2,16.1l-20.6,304.5c-0.3,4.6-4.3,8-8.8,7.7c-1.1-0.1-2.2-0.4-3.2-0.9
	L346.8,328l18.6-313.2c0.3-4.9,4.5-8.6,9.4-8.4C376,6.5,377.1,6.8,378.2,7.3z"/>
<path class="st4" d="M393.7,31l320.8,161.3c5.5,2.7,8.7,8.5,8.3,14.6l-18.6,276.1c-0.3,4.1-3.9,7.3-8,7c-1-0.1-2-0.3-2.9-0.8
	L365.2,321.6l16.8-283.9c0.3-4.4,4.1-7.8,8.5-7.6C391.7,30.2,392.7,30.5,393.7,31z"/>
<path class="st2" d="M62.7,483.3L426,666.3c6.9,3.4,14.9,3.4,21.8,0l268.7-136.4c3.2-3.2,2.7-7.8,1.7-11.3c-0.5-1.7-1.2-3.3-2-4.9
	l-36.6-19.3L371.7,340.7l-18.4-9.8c-9.9-5.2-21.7-5.3-31.6-0.1l-259,134.6c-4.9,2.6-6.9,8.6-4.3,13.6
	C59.3,480.8,60.8,482.4,62.7,483.3z"/>
<path class="st5" d="M62.7,483.3L426,666.3c6.9,3.4,14.9,3.4,21.8,0l268.7-136.4c3.2-3.2,2.7-7.8,1.7-11.3L450.3,657.8
	c-6.6,3.4-14.5,3.5-21.2,0.2L57.3,472.7C56.6,477.1,58.8,481.4,62.7,483.3z"/>
<path class="st5" d="M407.5,538.1l-117.6-59.4c-4.8-2.4-10.5-2.4-15.2,0.2l-68.2,36.5c-2.4,1.3-3.3,4.2-2,6.6
	c0.5,0.9,1.2,1.6,2.1,2.1l119.9,60.5c4,2,8.8,1.9,12.8-0.3l68.5-38.6c2-1.1,2.7-3.7,1.6-5.7C408.9,539.1,408.3,538.5,407.5,538.1z"
	/>
<path class="st5" d="M684.6,528.2L558,595.4c-3,1.6-6.5,1.6-9.5,0.1L190.8,414.7c-3-1.5-4.2-5.2-2.7-8.2c0.6-1.2,1.6-2.1,2.7-2.7
	l123.6-61.2c3.8-1.9,8.2-1.9,12,0l358,180.4c1.4,0.7,2,2.5,1.3,3.9C685.5,527.5,685.1,527.9,684.6,528.2z"/>
<rect x="539.8" y="157.5" transform="matrix(0.4472 -0.8944 0.8944 0.4472 99.7207 606.4537)" class="st1" width="1.4" height="130.1"/>
<rect x="539.8" y="174.9" transform="matrix(0.4554 -0.8903 0.8903 0.4554 80.4211 612.054)" class="st1" width="1.4" height="130.8"/>
<rect x="536.2" y="222.7" transform="matrix(0.455 -0.8905 0.8905 0.455 60.9588 619.9279)" class="st1" width="1.4" height="74.9"/>
<polyline class="st6" points="374.3,108.6 364,133 450.8,178.5 480,93 "/>
<polygon class="st1" points="448.8,163.5 487.1,73.4 399,30 362,118 "/>
<rect x="429.2" y="44.7" transform="matrix(0.455 -0.8905 0.8905 0.455 161.1514 427.6371)" class="st4" width="1.4" height="74.9"/>
<rect x="424.2" y="56.7" transform="matrix(0.455 -0.8905 0.8905 0.455 147.7405 429.7246)" class="st4" width="1.4" height="74.9"/>
</svg>
